<svg xmlns="http://www.w3.org/2000/svg" viewBox="0 0 81.88 88.66"><defs><style>.cls-1{fill:#e92700;}</style></defs><g id="Layer_2" data-name="Layer 2"><g id="Layer_1-2" data-name="Layer 1"><path class="cls-1" d="M45.54,88.66a12.44,12.44,0,0,1-1.93-.14c-9.23-1.38-25.62-6.7-27-7.49a10.44,10.44,0,0,1-3.79-14.25c2.88-5,5.44-5.18,12.3-5.75.33,0,7.74-.55,12.48-.55.63,0,1.18,0,1.66,0,3.48-6.35,16.78-31.46,17.89-33.94.51-1.12,2.05-4.53,5.55-4.53,2,0,4,1.07,6.54,2.42l1.45.76c1.88,1,3.48,1.71,4.88,2.35,4.83,2.2,8,3.66,5.29,9.71-3.05,6.75-23.23,43.48-24.16,45A13.09,13.09,0,0,1,45.54,88.66ZM37.61,64.17c-4.61,0-12.12.54-12.2.55-6.73.55-7.54.72-9.39,3.91a6.73,6.73,0,0,0,2.45,9.2c1.08.51,16.59,5.68,25.69,7a10.42,10.42,0,0,0,1.38.1,9.35,9.35,0,0,0,8-4.54c.93-1.55,21-38,24-44.67,1.22-2.7,1.22-2.7-3.45-4.83C72.67,30.3,71,29.52,69,28.5l-1.48-.78c-2-1.06-3.72-2-4.8-2-.33,0-1.12,0-2.18,2.35C59.26,30.9,44.24,59.25,41.92,63.34a1.81,1.81,0,0,1-1.81.92C39.57,64.2,38.72,64.17,37.61,64.17Z"/><path class="cls-1" d="M77.59,39.62a.87.87,0,0,1-.31-.07L57.46,30.23a.74.74,0,0,1,.63-1.35L77.91,38.2a.74.74,0,0,1-.32,1.42Z"/><path class="cls-1" d="M62.63,32.42a.71.71,0,0,1-.32-.07.75.75,0,0,1-.35-1l3.34-7a.74.74,0,0,1,1-.35.75.75,0,0,1,.35,1L63.3,32A.75.75,0,0,1,62.63,32.42Z"/><path class="cls-1" d="M66.34,34.26a.77.77,0,0,1-.32-.07.76.76,0,0,1-.35-1L69,26.24a.74.74,0,1,1,1.34.64l-3.34,7A.74.74,0,0,1,66.34,34.26Z"/><path class="cls-1" d="M69.9,35.9a.66.66,0,0,1-.32-.08.75.75,0,0,1-.35-1l3.34-7a.74.74,0,0,1,1.34.65l-3.34,7A.74.74,0,0,1,69.9,35.9Z"/><path class="cls-1" d="M73.34,37.19a.71.71,0,0,1-.32-.07.74.74,0,0,1-.35-1l3.34-7a.74.74,0,1,1,1.34.64l-3.34,7A.73.73,0,0,1,73.34,37.19Z"/><path class="cls-1" d="M45.3,87.78a14.5,14.5,0,0,1-4.87-.91.78.78,0,0,1-.43-.41.76.76,0,0,1,0-.59l4.14-9.62a.74.74,0,0,1,.83-.43l11.61,2.36a.79.79,0,0,1,.51.38.77.77,0,0,1,0,.63C57,79.54,53.51,87.78,45.3,87.78Zm-3.61-2.06a12.43,12.43,0,0,0,3.61.57c5.76,0,9-4.86,10-6.84L45.27,77.39Z"/><path class="cls-1" d="M17.88,80.39a.82.82,0,0,1-.37-.1l-.33-.19a9.32,9.32,0,0,1,6-17.3.82.82,0,0,1,.44.23A10.35,10.35,0,0,1,18,80.37Zm4-16.19a7.87,7.87,0,0,0-6.78,3.9,7.84,7.84,0,0,0,2.85,10.71l.09,0a8.86,8.86,0,0,0,4.68-14.61A5.92,5.92,0,0,0,21.85,64.2Z"/><path class="cls-1" d="M31.2,57.22a13.1,13.1,0,0,1-6.39-1.68C16.7,50.94,3.3,40.08,2.31,38.86A10.43,10.43,0,0,1,3.88,24.2c4.47-3.6,6.94-2.88,13.55-.95.43.13,9.29,2.83,13.38,4.58,5.52-4.67,27-23.34,28.89-25.26S63.15-.07,64.9,0c2.64.11,4.49,2.24,6.83,4.94.35.4.7.81,1.08,1.23,1.41,1.59,2.63,2.84,3.71,3.94,3.72,3.79,6.18,6.3,1.46,11-1.09,1.08-3.36,3.14-6.75,6.1A1.84,1.84,0,1,1,68.8,24.4c3.33-2.92,5.54-4.92,6.58-5.95,2.11-2.08,2.11-2.08-1.49-5.75-1.06-1.08-2.38-2.42-3.85-4.08l-1.1-1.26C67.25,5.42,65.8,3.74,64.76,3.7a4.43,4.43,0,0,0-2.47,1.5c-2.2,2.18-26.39,23.25-30,26.23a1.84,1.84,0,0,1-2,.21c-2.43-1.26-10.84-3.93-13.88-4.86-6.49-1.89-7.3-2-10.17.29a6.72,6.72,0,0,0-1,9.47C6,37.4,18.64,47.79,26.63,52.32a9.06,9.06,0,0,0,1.26.59A9.34,9.34,0,0,0,37,51.54C37.41,51.2,42.4,47,49.24,41.2A1.85,1.85,0,0,1,51.63,44C45.5,49.23,39.85,54,39.26,54.45A13.08,13.08,0,0,1,31.2,57.22Z"/><path class="cls-1" d="M74.35,22.13a.74.74,0,0,1-.54-.23L58.66,6.09a.73.73,0,0,1,0-1,.74.74,0,0,1,1,0l15.15,15.8a.75.75,0,0,1,0,1.06A.76.76,0,0,1,74.35,22.13Z"/><path class="cls-1" d="M63,10.05a.75.75,0,0,1-.51-1.29l5.61-5.3a.74.74,0,0,1,1,0,.73.73,0,0,1,0,1l-5.61,5.3A.73.73,0,0,1,63,10.05Z"/><path class="cls-1" d="M65.77,13.09a.72.72,0,0,1-.54-.23.74.74,0,0,1,0-1l5.61-5.3a.74.74,0,1,1,1,1.08l-5.61,5.3A.72.72,0,0,1,65.77,13.09Z"/><path class="cls-1" d="M68.51,15.9a.78.78,0,0,1-.55-.23.74.74,0,0,1,0-1.05l5.61-5.3a.75.75,0,0,1,1.06,0,.74.74,0,0,1,0,1.05L69,15.7A.73.73,0,0,1,68.51,15.9Z"/><path class="cls-1" d="M71.25,18.34a.7.7,0,0,1-.54-.23.73.73,0,0,1,0-1.05l5.61-5.3a.74.74,0,0,1,1.05,0,.75.75,0,0,1,0,1.06l-5.61,5.29A.73.73,0,0,1,71.25,18.34Z"/><path class="cls-1" d="M30.7,56.21a12.47,12.47,0,0,1-8.26-3.36.76.76,0,0,1-.25-.53.71.71,0,0,1,.21-.55l7.31-7.5a.76.76,0,0,1,.93-.11l10,6.38a.75.75,0,0,1,.34.54.77.77,0,0,1-.2.6C40.59,51.86,36.43,56.21,30.7,56.21Zm-6.67-4a10.72,10.72,0,0,0,6.67,2.49A13.41,13.41,0,0,0,39,51.28l-8.67-5.54Z"/><path class="cls-1" d="M5.72,38.92h0a10.57,10.57,0,0,1-1.87-.17.78.78,0,0,1-.45-.27l-.24-.29a9.33,9.33,0,0,1,1.4-13.11,9.53,9.53,0,0,1,10.38-.89.77.77,0,0,1,.33.36,10.34,10.34,0,0,1,.12,7.73A10.41,10.41,0,0,1,5.72,38.92ZM4.38,37.33a8.54,8.54,0,0,0,1.34.1A8.92,8.92,0,0,0,14,31.74a8.75,8.75,0,0,0,0-6.37,7.83,7.83,0,0,0-3.59-.87A7.83,7.83,0,0,0,4.32,37.25Z"/></g></g></svg>